# xmcd CD database file
#
# Track frame offsets:
#	150
#	8398
#	22109
#	34701
#	46267
#	56892
#	66655
#	75628
#	84026
#	97990
#	110814
#	122592
#	133412
#	143354
#	151004
#	163700
#	175362
#	185927
#	195773
#	204823
#	213143
#	219897
#	231089
#	241372
#	250821
#	259506
#	267491
#	273645
#	285803
#	296969
#	307228
#	316656
#
# Disc length: 4335 seconds
#
# Revision: 0
# Processed by: cddbd v1.5.1PL2 Copyright (c) Steve Scherf et al.
# Submitted via: CDex 1.51
#
DISCID=c210ed20
DTITLE=Charlie Parker - Time - Stretch
DYEAR=1900
DGENRE=Jazz
TTITLE0=Dama Lee
TTITLE1=Dama Lee
TTITLE2=Dama Lee
TTITLE3=Dama Lee
TTITLE4=Dama Lee
TTITLE5=Dama Lee
TTITLE6=Dama Lee
TTITLE7=Nows the Time 2
TTITLE8=Nows the Time 2
TTITLE9=Nows the Time 2
TTITLE10=Nows the Time 2
TTITLE11=Nows the Time 2
TTITLE12=Nows the Time 2
TTITLE13=Nows the Time 2
TTITLE14=Bird of Paradise
TTITLE15=Bird of Paradise
TTITLE16=Bird of Paradise
TTITLE17=Bird of Paradise
TTITLE18=Bird of Paradise
TTITLE19=Bird of Paradise
TTITLE20=Moose the Mooche
TTITLE21=Moose the Mooche
TTITLE22=Moose the Mooche
TTITLE23=Moose the Mooche
TTITLE24=Moose the Mooche
TTITLE25=Moose the Mooche
TTITLE26=Ornithology
TTITLE27=Ornithology
TTITLE28=Ornithology
TTITLE29=Ornithology
TTITLE30=Ornithology
TTITLE31=Ornithology
EXTD=
EXTT0=
EXTT1=
EXTT2=
EXTT3=
EXTT4=
EXTT5=
EXTT6=
EXTT7=
EXTT8=
EXTT9=
EXTT10=
EXTT11=
EXTT12=
EXTT13=
EXTT14=
EXTT15=
EXTT16=
EXTT17=
EXTT18=
EXTT19=
EXTT20=
EXTT21=
EXTT22=
EXTT23=
EXTT24=
EXTT25=
EXTT26=
EXTT27=
EXTT28=
EXTT29=
EXTT30=
EXTT31=
PLAYORDER=
